<?xml version="1.0" encoding="utf-8"?>
<!-- Generator: Adobe Illustrator 23.0.1, SVG Export Plug-In . SVG Version: 6.00 Build 0)  -->
<svg version="1.1" id="Calque_1" xmlns="http://www.w3.org/2000/svg" xmlns:xlink="http://www.w3.org/1999/xlink" x="0px" y="0px"
	 viewBox="0 0 384 420.7" style="enable-background:new 0 0 384 420.7;" xml:space="preserve">
<style type="text/css">
	.st0{fill:#FFFFFF;}
</style>
<path class="st0" d="M603.9,214.6v-8.5c0-6.6,5.4-12,12-12h360c6.6,0,12,5.4,12,12v8.5c0,6.6-5.4,12-12,12h-360
	C609.3,226.6,603.9,221.2,603.9,214.6z"/>
<path class="st0" d="M783.8,327.9v-8.5c0-6.6,5.4-12,12-12l180.1,0c6.6,0,12,5.4,12,12v8.5c0,6.6-5.4,12-12,12l-180.1,0
	C789.2,339.9,783.8,334.5,783.8,327.9z"/>
<g>
	<path class="st0" d="M53.2,77.6l6-6c4.7-4.7,12.3-4.7,17,0l254.6,254.6c4.7,4.7,4.7,12.3,0,17l-6,6c-4.7,4.7-12.3,4.7-17,0
		L53.2,94.6C48.6,89.9,48.6,82.3,53.2,77.6z"/>
	<path class="st0" d="M324.8,71.6l6,6c4.7,4.7,4.7,12.3,0,17L76.2,349.1c-4.7,4.7-12.3,4.7-17,0l-6-6c-4.7-4.7-4.7-12.3,0-17
		L307.8,71.6C312.5,66.9,320.1,66.9,324.8,71.6z"/>
</g>
</svg>
