<?xml version="1.0" encoding="utf-8"?>
<!-- Generator: Adobe Illustrator 23.0.1, SVG Export Plug-In . SVG Version: 6.00 Build 0)  -->
<svg version="1.1" id="Calque_1" xmlns="http://www.w3.org/2000/svg" xmlns:xlink="http://www.w3.org/1999/xlink" x="0px" y="0px"
	 viewBox="0 0 318.8 121.5" style="enable-background:new 0 0 318.8 121.5;" xml:space="preserve">
<style type="text/css">
	.st0{fill:#FFFFFF;}
</style>
<g>
	<path class="st0" d="M12.1,98.2c-5.7,0-11.3-1.5-11.8-7.5v-0.5c0-2,0.6-3.9,1.3-5.7C2.8,81,4.7,77.7,7,74.7
		c5.2-6.8,12.2-11.9,19.7-15.8c5.4-2.8,11.1-4.9,17-6.7c0.5-0.1,0.9-0.6,0.9-1.1c0-0.4-0.3-0.9-0.6-1.1c-1.3-0.8-2.4-1.6-3.5-2.6
		c-3.4-2.9-5.8-7-5.8-11.6v-0.6c0.4-6.4,5.5-11.4,10.4-15c4.3-2.9,8.9-5.2,13.7-7c6.7-2.8,13.6-4.8,20.5-6.4
		c0.3-0.1,0.6-0.1,1.1-0.1c1.1,0,2.4,0.3,2.4,1.4v0.4c-0.9,2.9-3.8,5.5-6.2,7.4c-0.5,0.4-1.3,0.6-2,0.6c-0.5,0-0.9-0.1-1.3-0.3
		c-0.5-0.1-1.3-0.8-1.3-1.3c0-0.3,0.1-0.4,0.4-0.6h0.1c0.1-0.1,0.3-0.3,0.3-0.5c0-0.6-1.5-1.1-2.8-1.1h-0.3
		c-7.2,0.6-17.1,6.2-22.8,10.7c-2.1,1.6-9.1,8.2-9.1,15.6c0,1.6,0.3,3.1,1,4.8c1.3,3.1,4.4,4.7,11.3,6.2c0.5,0,0.9,0.1,1.4,0.1
		c0.4,0,0.9-0.1,1.3-0.1l6.4-1.5c1.3-0.3,2.6-0.5,3.9-0.9c0.5,0,1.1-0.1,1.6-0.3c0.1-0.1,0.1-0.1,0.3-0.1c0.3,0,0.6-0.1,0.9-0.1
		c0.4-0.1,0.8-0.1,1.1-0.1c0.5,0,1,0,1.5,0.3c0.4,0.1,0.8,0.6,0.8,1.1v0.4c-0.8,3.4-8,5.3-13.1,5.3c-0.8,0-1.4,0-2-0.1
		c-0.9-0.1-1.6-0.1-2.5-0.1c-1.3,0-2.5,0.1-3.8,0.5c-0.3,0-0.5,0.1-0.8,0.3c-7.3,2.1-14.6,4.9-21.3,8.8c-7,4.2-13.2,9.7-17.4,16.7
		c-0.9,1.5-1.6,3-2.3,4.7c-0.1,0.3-0.9,2.1-0.9,4.4c0,3,1.5,6.7,8.5,7h1.4c19.1,0,54.1-19.4,56.8-21.4C80.5,69.3,96,60,97,59.5
		c0.9-0.4,1.5-0.6,2-0.6c0.5,0,0.9,0.4,0.9,0.8c0,0.5-0.5,1.1-1.3,1.6C97.4,62,72.9,76.4,71.8,77.1c-5,2.8-10.2,5.4-15.3,7.8
		C45.1,90,33.2,94.8,20.9,97.2C18.7,97.7,15.4,98.2,12.1,98.2z"/>
	<path class="st0" d="M85.9,114.9c-0.6,0-1.1-0.4-1.4-0.5s-0.4-0.6-0.4-1.5c0-8.8,13.1-53.4,14.2-56.2c0.5-1.4,1.4-1.9,2.1-1.9
		c1.3,0,2.4,1.1,2.4,2.1c0,0.1-0.1,0.3-0.1,0.4c-0.5,1.3-8.3,27.9-12.3,41.9c-0.5,1.9-0.8,3-0.8,3.3v0.1c0.1,0,0.6-1.3,1.3-3.3
		c3.9-12.2,9.9-32.9,15.1-42.6c1.5-2.9,3.3-5.3,5.9-5.3c1.1,0,2.1,0.4,2.9,1.1c0.9,0.9,1.1,2.1,1.3,3.4v0.3c0,1.5-0.9,5-0.9,8.2
		c0,1.5,0.3,2.9,0.8,4c0.6,1.3,1.6,1.8,2.9,1.8c3.6,0,9.2-4.1,12.8-8.9c0.3-0.4,0.6-0.5,0.9-0.5c0.3,0,0.5,0.3,0.5,0.5
		c0,0.4-0.1,0.8-0.6,1.3c-2.6,3-8.8,9.3-14.3,9.3c-1.3,0-2.4-0.3-3.5-1c-3-1.9-3.8-5.2-3.8-8.3c0-3.4,0.9-6.7,0.9-8.2
		c0-0.5,0-0.8-0.3-0.9c-0.1-0.1-0.3-0.1-0.4-0.1c-1.6,0-4,4.3-6.4,9.7c-7.5,16.9-12.4,44.5-16.6,50.6
		C87.5,114.5,86.7,114.9,85.9,114.9z"/>
	<path class="st0" d="M132.4,57.3c0.1,0,0.4,0.1,0.6,0.1c1,0.3,1.5,0.9,1.5,1.9c0,0.4,0,0.6-0.1,1c-0.6,2.5-1.5,3.9-2.4,6.7
		c-0.4,1.3-1.8,5-1.8,7.7c0,1.4,0.4,2.5,1.5,2.8c0.3,0.1,0.6,0.1,0.9,0.1c6.2,0,19.2-14.8,20.7-17c0.5-0.5,1-0.9,1.4-0.9
		c0.4,0,0.6,0.3,0.6,0.5c0,0.4-0.3,0.8-0.6,1.3c-1.9,2.5-15.2,18-23.5,18c-1,0-2-0.3-2.9-0.9c-1.9-1.3-2.4-3.1-2.4-5.2
		c0-2.4,0.8-5,1.4-6.9c0.9-2.4,1.6-4.8,2.6-7.2C130.1,59.1,130.6,57.3,132.4,57.3z M134.1,55.4c-0.3,0-0.5,0-0.8-0.1
		c-0.9-0.3-1.1-1-1.1-1.8c0-0.4,0.1-0.9,0.3-1.1c0.4-0.6,1.1-1.6,2.3-1.6c0.3,0,0.4,0,0.6,0.1c0.9,0.4,1.1,1.1,1.1,1.9
		c0,0.4-0.1,0.9-0.3,1.1C136,54.6,135.1,55.4,134.1,55.4z"/>
	<path class="st0" d="M182.3,59.8c0.5,0,0.8,0.3,0.8,0.5c0,0.4-0.4,0.8-0.8,0.9c-9.7,3.4-16.8,6.7-22,9.8c-0.6,0.3-1,0.9-1,1.4
		c0,0.1,0.1,0.4,0.1,0.5c0.3,1.3,0.4,2.5,0.4,3.9c0,1.9-0.3,3.8-1.1,5.8c-1.8,4-5.7,7-10.2,7.5h-0.5c-2.1,0-4.3-1.3-4.3-3.5v-0.1
		c0-1.1,0.1-5.9,10.2-13c0.4-0.3,0.6-0.6,0.6-1.1V72c-0.4-1-0.6-2-1.1-3c-0.8-2-1.9-3.8-2.1-5.9c0-0.4-0.1-0.9-0.1-1.3
		c0-1.1,0.4-2.4,0.9-3.5c1.4-2.8,3.9-4.8,6.9-5.2h0.4c3,0,4.9,3.9,4.9,5.2v0.1c0,0.8-0.6,1.4-1.5,1.4c-0.4,0-0.8-0.1-1.3-0.4
		c-1.4-0.8-1.3-4-2-4.5h-0.3c-0.9,0-3.5,1.4-3.5,5.4c0,1.5,0.4,3.5,1.5,5.9c0.5,1.1,1,2.3,1.4,3.5c0.1,0.3,0.4,0.4,0.6,0.4h0.3
		c5.2-3,12.1-6.3,21.2-9.8C181.4,60,182,59.8,182.3,59.8z M155,77.2v-0.1c0-0.8-0.6-1.3-1.4-1.3c-0.3,0-0.6,0-0.9,0.3
		c-5.2,4.4-6.3,7.8-6.3,9.7c0,0.8,0.3,1.3,0.4,1.5c0.3,0.3,0.5,0.4,0.9,0.4c1.9,0,5.5-3.6,6.5-6.3C154.7,80.1,155,78.7,155,77.2z"/>
	<path class="st0" d="M188.9,58.7c-0.3,0-0.4-0.1-0.6-0.1c-3.5,0-6.2,5.5-6.8,7.3c-0.4,1-0.6,2.1-0.6,3.3c0,0.5,0,0.9,0.1,1.3
		c0.5,1.5,1.6,2,3.1,2.1h0.4c5.5,0,18.4-8,21.9-12.2c0.8-0.9,1.3-1.1,1.6-1.1c0.3,0,0.4,0.1,0.4,0.5V60c-0.8,2-15.8,14.5-25.8,15.1
		h-0.4c-4.7,0-5.5-4.4-5.5-5.9c0-2.4,1-5.2,2.3-6.8c2.1-3.1,5.7-6,9.6-6c0.5,0,1,0,1.5,0.1c0.5,0.1,1.5,0.5,1.5,1.1
		c0,0.1-0.1,0.3-0.1,0.4c-0.3,0.6-1.3,0.8-2,0.8H188.9z"/>
	<path class="st0" d="M208.3,56.1c1.1,0,2.3,1,2.3,2c0,0.1-0.1,0.3-0.1,0.4c-0.8,1.8-3.3,9.3-3.9,11.1c3.8-8.3,5.9-14.2,9.6-15.3
		c0.4-0.1,0.8-0.3,1.1-0.3c1.3,0,2.4,0.5,3.1,1.3c2.4,2.4,3.5,6.7,9.4,7.5c0.5,0.1,1.1,0.1,1.8,0.1c2.5,0,5.4-0.6,7.4-2
		c0.4-0.3,0.6-0.3,0.9-0.3c0.4,0,0.8,0.1,0.8,0.4c0,0.3-0.3,0.6-1,1c-2.5,1.4-6.8,2.5-10.9,2.5c-2.3,0-4.5-0.4-6.3-1.4
		c-4.7-2.6-4.4-4.3-6.3-4.9c-0.4-0.1-0.6-0.3-1-0.3c-1,0-2.3,0.9-4.3,5.2c-2.6,5.5-4.3,13.2-7.3,13.2c-0.1,0-0.4-0.1-0.5-0.1
		c-0.6-0.1-0.9-1-0.9-2.4c0-4.4,2.9-13.6,3.9-15.8C206.7,56.6,207.4,56.1,208.3,56.1z"/>
	<path class="st0" d="M239.9,57.3c0.1,0,0.4,0.1,0.6,0.1c1,0.3,1.5,0.9,1.5,1.9c0,0.4,0,0.6-0.1,1c-0.6,2.5-1.5,3.9-2.4,6.7
		c-0.4,1.3-1.8,5-1.8,7.7c0,1.4,0.4,2.5,1.5,2.8c0.3,0.1,0.6,0.1,0.9,0.1c6.2,0,19.2-14.8,20.7-17c0.5-0.5,1-0.9,1.4-0.9
		c0.4,0,0.6,0.3,0.6,0.5c0,0.4-0.3,0.8-0.6,1.3c-1.9,2.5-15.2,18-23.5,18c-1,0-2-0.3-2.9-0.9c-1.9-1.3-2.4-3.1-2.4-5.2
		c0-2.4,0.8-5,1.4-6.9c0.9-2.4,1.6-4.8,2.6-7.2C237.6,59.1,238.1,57.3,239.9,57.3z M241.6,55.4c-0.3,0-0.5,0-0.8-0.1
		c-0.9-0.3-1.1-1-1.1-1.8c0-0.4,0.1-0.9,0.3-1.1c0.4-0.6,1.1-1.6,2.3-1.6c0.3,0,0.4,0,0.6,0.1c0.9,0.4,1.1,1.1,1.1,1.9
		c0,0.4-0.1,0.9-0.3,1.1C243.5,54.6,242.6,55.4,241.6,55.4z"/>
	<path class="st0" d="M283.1,15.5c0.3,0,0.6,0,1,0.1c1.6,0.5,2.1,1.8,2.1,3.1c0,2.1-1.1,4.7-1.6,6c-2.1,5.3-4.9,10.2-7.8,15
		c-2.9,4.9-6.2,9.6-9.1,14.5c-0.6,1-1.3,2-1.8,3l0.4-0.4c0.5-0.3,1-0.4,1.6-0.4c0.6,0,1.3,0.1,1.8,0.5c1,0.6,1.6,1.4,1.9,2.5
		c0.3,1.1,0.3,2.8,0.3,4.3V64c0,0.6,0.5,1.1,1.1,1.3c1.1,0.1,2.1,0.3,3.3,0.3c8.3,0,15.2-5,16.5-5c0.1,0,0.3,0,0.3,0.1v0.3
		c0,0.5-0.5,1-0.9,1.3c-5.2,2.9-11.1,5.2-17,5.2h-1.4c-1.5,0-2.8,0.9-3.1,2.1v0.1c-0.8,2.3-1.8,4.7-3.9,5.8c-1,0.6-2,0.9-3.1,0.9
		c-2.1,0-4.3-1.3-5.5-3.4c-1.1-1.8-1.5-3.8-1.5-5.8c0-1.6,0.3-3.4,0.6-4.9c3-13.8,8.4-27.4,16.7-39c1.3-1.6,2.5-3.3,4-4.8
		C279.4,17,281.1,15.5,283.1,15.5z M266.7,65.9c0-0.9-0.9-1.5-1.3-2.1c-0.8-1-1.1-2.1-1.1-3.3v-0.4c-1,1.6-1.9,3.4-2.9,5.2
		c-0.1,1.1-0.4,2.3-0.4,3.3c0,0.6,0.1,1.3,0.3,1.9c0.3,0.9,0.6,1.8,1.3,2.4c0.3,0.3,0.4,0.4,0.8,0.6c2.1-1.6,3.1-4.8,3.4-7.3V65.9z
		 M283.5,19.5c0-0.3,0-0.5-0.1-0.5c-0.8,0-2.6,2.4-3.6,3.6c-7,8.8-11.9,19.6-15.2,30.3c-0.9,2.9-1.4,4.5-2.1,7.4
		C280.8,32.3,283.5,21.9,283.5,19.5z"/>
	<path class="st0" d="M290.9,69.8c0,0.3,0.1,0.4,0.1,0.5v0.1c0.5,1.5,1.6,2,3.1,2.1h0.4c5.5,0,18.2-8,21.9-12.2
		c0.8-0.9,1.3-1.1,1.6-1.1c0.3,0,0.4,0.1,0.4,0.5V60c-0.8,2-15.8,14.5-25.8,15.1h-0.4c-4.7,0-5.5-4.4-5.5-5.9c0-2.4,1-5.2,2.3-6.8
		c2-2.9,6-6.3,9.3-6.3c0.6,0,1.3,0.1,1.8,0.4c1.3,0.6,1.6,1.9,1.6,3.1c0,0.9-0.1,1.8-0.5,2.4c-0.6,1.3-1.5,2.5-2.5,3.4
		c-1.9,1.6-4.1,2.4-6.5,2.9C291.4,68.5,290.9,69.2,290.9,69.8z M291.9,65.1h0.4c0.1,0,0.3,0,0.4-0.1h0.1c0.3-0.1,0.6-0.3,0.9-0.4
		c0.3-0.1,0.5-0.3,0.9-0.4v-0.1c0.1,0,0.3-0.1,0.4-0.3c1.1-0.8,1.8-1.5,2.4-2.6c0.3-0.4,0.6-1,0.8-1.4v-1c-2.8,0.8-5,3.9-6,6
		C292.1,64.9,291.9,65,291.9,65.1z"/>
</g>
</svg>
