<?xml version="1.0" encoding="utf-8"?>
<!-- Generator: Adobe Illustrator 23.0.1, SVG Export Plug-In . SVG Version: 6.00 Build 0)  -->
<svg version="1.1" id="Calque_1" xmlns="http://www.w3.org/2000/svg" xmlns:xlink="http://www.w3.org/1999/xlink" x="0px" y="0px"
	 viewBox="0 0 384 420.7" style="enable-background:new 0 0 384 420.7;" xml:space="preserve">
<style type="text/css">
	.st0{fill:#FFFFFF;}
</style>
<g>
	<path class="st0" d="M0,101.3l0-8.5c0-6.6,5.4-12,12-12h360c6.6,0,12,5.4,12,12v8.5c0,6.6-5.4,12-12,12H12
		C5.4,113.3,0,107.9,0,101.3z"/>
	<path class="st0" d="M0,214.6l0-8.5c0-6.6,5.4-12,12-12h360c6.6,0,12,5.4,12,12v8.5c0,6.6-5.4,12-12,12H12
		C5.4,226.6,0,221.2,0,214.6z"/>
	<path class="st0" d="M179.9,327.9v-8.5c0-6.6,5.4-12,12-12l180.1,0c6.6,0,12,5.4,12,12v8.5c0,6.6-5.4,12-12,12l-180.1,0
		C185.3,339.9,179.9,334.5,179.9,327.9z"/>
</g>
</svg>
