<?xml version="1.0" encoding="utf-8"?>
<!-- Generator: Adobe Illustrator 23.0.1, SVG Export Plug-In . SVG Version: 6.00 Build 0)  -->
<svg version="1.1" id="Calque_1" xmlns="http://www.w3.org/2000/svg" xmlns:xlink="http://www.w3.org/1999/xlink" x="0px" y="0px"
	 viewBox="0 0 500 500" style="enable-background:new 0 0 500 500;" xml:space="preserve">
<style type="text/css">
	.st0{fill:none;stroke:#D3AD88;stroke-miterlimit:10;stroke-dasharray:9.1927,9.1927;}
	.st1{fill:#D3AD88;}
</style>
<g>
	<circle class="st0" cx="249.9" cy="249.4" r="239.9"/>
</g>
<g>
	<path class="st1" d="M193.3,185c6-14.2,13.6-25.2,22.8-32.9s20.6-11.6,34.3-11.6c16.9,0,29.8,5.5,38.9,16.5
		c6.8,8.2,10.3,16.9,10.3,26.3c0,15.3-9.6,31.2-28.9,47.6c13,5.1,22.7,12.3,29.4,21.8s9.9,20.5,9.9,33.3c0,18.2-5.8,34-17.4,47.4
		c-15.1,17.4-37,26.1-65.8,26.1c-14.2,0-23.9-1.8-29-5.3c-5.1-3.5-7.7-7.3-7.7-11.3c0-3,1.2-5.6,3.7-7.9c2.4-2.3,5.4-3.4,8.8-3.4
		c2.6,0,5.2,0.4,7.9,1.2c1.8,0.5,5.8,2.4,12,5.7c6.2,3.3,10.5,5.2,12.9,5.8c3.8,1.1,7.9,1.7,12.3,1.7c10.6,0,19.8-4.1,27.6-12.3
		c7.8-8.2,11.7-17.9,11.7-29.1c0-8.2-1.8-16.2-5.4-23.9c-2.7-5.8-5.6-10.2-8.9-13.2c-4.5-4.1-10.6-7.9-18.3-11.3
		c-7.8-3.4-15.7-5.1-23.8-5.1h-5v-4.7c8.2-1,16.4-4,24.6-8.9c8.2-4.9,14.2-10.7,18-17.6c3.7-6.8,5.6-14.4,5.6-22.5
		c0-10.7-3.3-19.3-10-25.9c-6.7-6.6-15-9.9-25-9.9c-16.1,0-29.5,8.6-40.3,25.8L193.3,185z"/>
</g>
</svg>
