<?xml version="1.0" encoding="utf-8"?>
<!-- Generator: Adobe Illustrator 23.0.1, SVG Export Plug-In . SVG Version: 6.00 Build 0)  -->
<svg version="1.1" id="Calque_1" xmlns="http://www.w3.org/2000/svg" xmlns:xlink="http://www.w3.org/1999/xlink" x="0px" y="0px"
	 viewBox="0 0 500 500" style="enable-background:new 0 0 500 500;" xml:space="preserve">
<style type="text/css">
	.st0{fill:none;stroke:#D3AD88;stroke-miterlimit:10;stroke-dasharray:9.1927,9.1927;}
	.st1{fill:#D3AD88;}
</style>
<g>
	<circle class="st0" cx="249.9" cy="249.4" r="239.9"/>
</g>
<g>
	<path class="st1" d="M207.9,166.3l52-25.4h5.2v180.4c0,12,0.5,19.4,1.5,22.4s3.1,5.2,6.2,6.8s9.6,2.5,19.2,2.7v5.8h-80.4v-5.8
		c10.1-0.2,16.6-1.1,19.5-2.6c2.9-1.5,5-3.6,6.1-6.1s1.7-10.3,1.7-23.1V206c0-15.5-0.5-25.5-1.6-29.9c-0.7-3.4-2.1-5.8-4-7.4
		s-4.3-2.4-7-2.4c-3.9,0-9.3,1.6-16.2,4.9L207.9,166.3z"/>
</g>
</svg>
