<?xml version="1.0" encoding="utf-8"?>
<!-- Generator: Adobe Illustrator 23.0.1, SVG Export Plug-In . SVG Version: 6.00 Build 0)  -->
<svg version="1.1" id="Calque_1" xmlns="http://www.w3.org/2000/svg" xmlns:xlink="http://www.w3.org/1999/xlink" x="0px" y="0px"
	 viewBox="0 0 500 500" style="enable-background:new 0 0 500 500;" xml:space="preserve">
<style type="text/css">
	.st0{fill:none;stroke:#D3AD88;stroke-miterlimit:10;stroke-dasharray:9.1927,9.1927;}
	.st1{fill:#D3AD88;}
</style>
<g>
	<circle class="st0" cx="249.9" cy="249.4" r="239.9"/>
</g>
<g>
	<path class="st1" d="M320.8,317.9l-15,41.1H179.2v-5.8c37.2-33.8,63.5-61.4,78.6-82.9c15.2-21.4,22.8-41,22.8-58.8
		c0-13.5-4.2-24.7-12.5-33.4c-8.3-8.7-18.3-13.1-29.9-13.1c-10.5,0-20,3.1-28.4,9.2c-8.4,6.1-14.6,15.1-18.6,27h-5.9
		c2.6-19.4,9.4-34.3,20.3-44.7s24.6-15.6,40.9-15.6c17.4,0,31.9,5.6,43.6,16.7c11.7,11.1,17.5,24.3,17.5,39.4
		c0,10.8-2.5,21.6-7.6,32.4c-7.8,17-20.5,35-38,54c-26.3,28.6-42.7,45.8-49.2,51.7h56c11.4,0,19.4-0.4,24-1.3s8.7-2.5,12.4-5.1
		c3.7-2.6,6.9-6.2,9.7-10.9H320.8z"/>
</g>
</svg>
